<svg width="44" height="44" viewBox="0 0 44 44" fill="none" xmlns="http://www.w3.org/2000/svg">
<path d="M22.64 32.336C25.592 32.336 28.352 29.672 28.352 25.04C28.352 20.936 26.36 18.224 23.048 18.224C21.728 18.224 20.384 18.872 19.328 19.832L19.424 17.672V12.848H15.896V32H18.656L18.968 30.584H19.064C20.144 31.712 21.44 32.336 22.64 32.336ZM21.848 29.432C21.128 29.432 20.264 29.168 19.424 28.424V22.52C20.336 21.584 21.152 21.128 22.064 21.128C23.912 21.128 24.728 22.544 24.728 25.112C24.728 28.04 23.48 29.432 21.848 29.432Z" fill="#9CA3AF"/>
<rect x="0.5" y="0.5" width="43" height="43" rx="21.5" stroke="#9CA3AF"/>
</svg>
