<svg width="23" height="20" viewBox="0 0 23 20" fill="none" xmlns="http://www.w3.org/2000/svg">
<path d="M14.3335 5.78949C15.7324 6.78346 16.5557 8.3434 16.5557 10C16.5557 11.6566 15.7324 13.2166 14.3335 14.2105" stroke="white" stroke-width="2" stroke-linecap="round" stroke-linejoin="round"/>
<path d="M17.3335 2.63159C19.6828 4.4302 21.0481 7.13844 21.0481 10C21.0481 12.8616 19.6828 15.5698 17.3335 17.3684" stroke="white" stroke-width="2" stroke-linecap="round" stroke-linejoin="round"/>
<path d="M4.33333 13.1579H2.11111C1.49746 13.1579 1 12.6866 1 12.1053V7.89474C1 7.31339 1.49746 6.84211 2.11111 6.84211H4.33333L8.22222 2.10526C8.42288 1.73602 8.87773 1.5605 9.29361 1.69184C9.70949 1.82317 9.96221 2.22213 9.88889 2.63158V17.3684C9.96221 17.7779 9.70949 18.1768 9.29361 18.3082C8.87773 18.4395 8.42288 18.264 8.22222 17.8947L4.33333 13.1579" stroke="white" stroke-width="2" stroke-linecap="round" stroke-linejoin="round"/>
</svg>
