<svg width="44" height="44" viewBox="0 0 44 44" fill="none" xmlns="http://www.w3.org/2000/svg">
<path d="M21.9909 15.5047C21.0606 15.5047 20.151 15.6339 19.2724 15.8886V13.2837C19.2724 11.4731 17.755 10 15.8893 10C14.0236 10 12.5063 11.4731 12.5063 13.2837C12.5063 13.2837 12.4921 25.1777 12.5063 25.3885V25.652H12.527C12.994 30.3311 17.0596 34 21.9909 34C27.2345 34 31.5 29.8517 31.5 24.7523C31.5 19.653 27.2345 15.5047 21.9909 15.5047ZM21.9909 22.0847C23.5031 22.0847 24.734 23.2817 24.734 24.7523C24.734 26.2229 23.5031 27.42 21.9909 27.42C20.4787 27.42 19.2478 26.2229 19.2478 24.7523C19.2478 23.2817 20.4787 22.0847 21.9909 22.0847ZM21.9909 32.7553C17.6583 32.7553 14.0998 29.4816 13.7862 25.3458V13.2837C13.7862 12.1595 14.7294 11.246 15.8893 11.246C17.0493 11.246 17.9924 12.1607 17.9924 13.2837V24.322C17.9769 24.4637 17.9679 24.6068 17.9679 24.7536C17.9679 26.9105 19.773 28.666 21.9909 28.666C24.2088 28.666 26.0139 26.9105 26.0139 24.7536C26.0139 22.5966 24.2088 20.8412 21.9909 20.8412C20.9432 20.8412 19.9897 21.2327 19.2724 21.8726V20.1624C20.0968 19.6994 21.0297 19.4547 21.9909 19.4547C24.9959 19.4547 27.4409 21.8325 27.4409 24.7548C27.4409 27.6772 24.9959 30.055 21.9909 30.055C18.9859 30.055 16.5409 27.6772 16.5409 24.7548H16.5293V13.3201C16.5293 12.9763 16.2429 12.6978 15.8893 12.6978C15.5358 12.6978 15.2494 12.9763 15.2494 13.3201V25.1576C15.2494 25.2354 15.2313 25.3509 15.2571 25.4199C15.5823 28.7362 18.4969 31.296 21.9896 31.296C25.7004 31.296 28.7195 28.3598 28.7195 24.7511C28.7195 21.1424 25.7004 18.2062 21.9896 18.2062C21.0451 18.2062 20.1226 18.3969 19.2711 18.7633V17.1949C20.142 16.8987 21.0542 16.7482 21.9896 16.7482C26.5274 16.7482 30.2188 20.3381 30.2188 24.7511C30.2188 29.1641 26.5274 32.754 21.9896 32.754L21.9909 32.7553Z" fill="#9CA3AF"/>
<rect x="0.5" y="0.5" width="43" height="43" rx="21.5" stroke="#9CA3AF"/>
</svg>
